<svg t="1732248067679" class="icon" viewBox="0 0 1024 1024" version="1.1" xmlns="http://www.w3.org/2000/svg" p-id="14131" width="200" height="200"><path d="M462 881V81c0-27.6 22.4-50 50-50s50 22.4 50 50v800c0 27.6-22.4 50-50 50s-50-22.4-50-50z" p-id="14132"></path><path d="M483.3 907.6l212.1-212.1c19.5-19.5 51.2-19.5 70.7 0s19.5 51.2 0 70.7L554 978.4c-19.5 19.5-51.2 19.5-70.7 0-19.6-19.6-19.6-51.2 0-70.8z" p-id="14133"></path><path d="M328.6 695.5l212.1 212.1c19.5 19.5 19.5 51.2 0 70.7s-51.2 19.5-70.7 0L257.9 766.2c-19.5-19.5-19.5-51.2 0-70.7s51.2-19.5 70.7 0z" p-id="14134"></path></svg>