<svg t="1767667005900" class="icon" viewBox="0 0 1024 1024" version="1.1" xmlns="http://www.w3.org/2000/svg" p-id="3129" width="200" height="200"><path d="M712.8576 768c-21.76 0-41.5744-4.5056-59.2896-13.5168a105.0624 105.0624 0 0 1-42.3424-39.5264c-10.3936-17.408-15.616-38.3488-15.616-62.9248 0-21.6064 3.84-39.1168 11.6224-52.5824 7.7312-13.568 18.1248-24.2176 31.0784-31.8976 13.0048-7.68 27.3408-13.4656 43.008-17.2032 15.8208-3.9424 31.6928-7.0656 47.616-9.3696 20.9408-2.9184 37.888-5.12 50.8416-6.656 13.1072-1.5872 22.6816-4.3008 28.672-8.0896 6.0928-3.7376 9.1648-10.2912 9.1648-19.6608v-1.9456c0-24.2176-6.0416-43.0592-18.176-56.5248-11.9296-13.4144-30.0544-20.1216-54.3744-20.1216-25.1904 0-44.9536 6.0416-59.2896 18.176-14.336 12.1344-24.3712 25.088-30.208 38.8096l-50.176-19.6608c9.0112-22.9376 20.9408-40.7552 35.84-53.5552 15.104-12.9024 31.488-21.9136 49.2544-27.0336a187.392 187.392 0 0 1 52.7872-7.8336c11.0592 0 23.7568 1.4848 38.0416 4.4032 14.4896 2.816 28.4672 8.6016 41.8816 17.408 13.568 8.9088 24.832 22.2208 33.792 40.0896 8.96 17.8688 13.4144 41.7792 13.4144 71.7312v248.6272h-52.7872v-51.0976h-2.7136c-3.584 8.192-9.5744 16.9472-17.92 26.3168-8.3456 9.3184-19.456 17.2544-33.28 23.808-13.9264 6.5536-30.8736 9.8304-50.8416 9.8304z m8.0384-52.0704c20.8896 0 38.5024-4.5056 52.8384-13.5168a88.064 88.064 0 0 0 32.6656-34.9184c7.4752-14.2336 11.2128-29.184 11.2128-44.9536v-53.0432c-2.2528 2.9184-7.168 5.632-14.7968 8.0896a230.0928 230.0928 0 0 1-25.9584 6.144 1083.0848 1083.0848 0 0 1-50.5856 7.3728c-13.7216 1.9968-26.5728 5.12-38.5024 9.5744-11.776 4.2496-21.2992 10.752-28.672 19.456-7.1168 8.4992-10.7008 20.1216-10.7008 34.816 0 20.1728 6.8096 35.4304 20.3776 45.7216 13.7216 10.1888 31.0784 15.2576 52.1216 15.2576zM211.7632 759.1424H153.6L321.8944 256h57.2928l168.2944 503.1424H489.2672L352.3072 335.616h-3.584l-136.96 423.5264z m21.504-196.5056h234.496v54.016h-234.496v-54.0672z" fill="currentColor" p-id="3130"></path></svg>