<svg t="1730957947698" class="icon" viewBox="0 0 1024 1024" version="1.1" xmlns="http://www.w3.org/2000/svg" p-id="1959" width="200" height="200"><path d="M930.133333 459.306667A426.666667 426.666667 0 0 1 178.56000001 735.146667a419.2 419.2 0 0 1-82.98666701-152.533334 42.666667 42.666667 0 0 1 14.08-45.44A42.666667 42.666667 0 0 1 156.8 533.333333a381.013333 381.013333 0 0 0 377.6-3.413333 384 384 0 0 0 192-347.306667 42.666667 42.666667 0 0 1 24.746667-39.893333 42.666667 42.666667 0 0 1 46.933333 6.613333 424.96 424.96 0 0 1 132.053333 309.973334z m-794.026666 110.933333a379.52 379.52 0 0 0 75.093333 137.386667A384 384 0 1 0 767.99999999 181.12a426.666667 426.666667 0 0 1-213.33333299 385.493333 423.68 423.68 0 0 1-418.56 3.626667z" p-id="1960"></path></svg>