<?xml version="1.0" standalone="no"?><!DOCTYPE svg PUBLIC "-//W3C//DTD SVG 1.1//EN" "http://www.w3.org/Graphics/SVG/1.1/DTD/svg11.dtd"><svg t="1732245284954" class="icon" viewBox="0 0 1024 1024" version="1.1" xmlns="http://www.w3.org/2000/svg" p-id="1515" xmlns:xlink="http://www.w3.org/1999/xlink" width="200" height="200"><path d="M302.76 633.01c-9.73 0-19.45-3.71-26.87-11.13l-133.9-133.9c-46.21-46.21-71.66-107.65-71.66-172.99S95.78 188.2 141.99 142c46.21-46.21 107.65-71.66 172.99-71.66 65.35 0 126.79 25.45 172.99 71.66l133.9 133.9c14.84 14.84 14.84 38.9 0 53.74L558 393.51c-14.84 14.84-38.9 14.84-53.74 0s-14.84-38.9 0-53.74l37-37-107.02-107.04c-65.76-65.76-172.75-65.76-238.51 0-65.76 65.76-65.76 172.75 0 238.51l107.03 107.03 33.57-33.57c14.84-14.84 38.9-14.84 53.74 0 14.84 14.84 14.84 38.9 0 53.74l-60.44 60.44c-7.42 7.42-17.15 11.13-26.87 11.13zM709.02 953.67c-65.35 0-126.79-25.45-172.99-71.66l-133.9-133.9c-14.84-14.84-14.84-38.9 0-53.74L466 630.5c14.84-14.84 38.9-14.84 53.74 0s14.84 38.9 0 53.74l-37 37 107.03 107.03c65.76 65.76 172.75 65.76 238.51 0 65.76-65.76 65.76-172.75 0-238.51L721.24 482.73l-33.57 33.57c-14.84 14.84-38.9 14.84-53.74 0s-14.84-38.9 0-53.74l60.44-60.44c14.84-14.84 38.9-14.84 53.74 0l133.9 133.9c46.21 46.21 71.66 107.65 71.66 172.99S928.22 835.8 882.01 882s-107.64 71.67-172.99 71.67z" fill="#2A2A2A" p-id="1516"></path><path d="M639.8 677.8c-9.72 0-19.45-3.71-26.87-11.13L356.29 410.03c-14.84-14.84-14.84-38.9 0-53.74s38.9-14.84 53.74 0l256.64 256.64c14.84 14.84 14.84 38.9 0 53.74-7.42 7.42-17.15 11.13-26.87 11.13zM797.01 367.81c-16.48 0-31.65-10.8-36.48-27.42-5.85-20.16 5.75-41.24 25.9-47.09l79.28-23.01c20.15-5.85 41.24 5.75 47.09 25.9s-5.75 41.24-25.9 47.09l-79.28 23.01a37.952 37.952 0 0 1-10.61 1.52zM698.25 269.02a37.9 37.9 0 0 1-10.61-1.52c-20.16-5.85-31.75-26.93-25.9-47.09l23.01-79.28c5.85-20.16 26.93-31.75 47.09-25.9 20.16 5.85 31.75 26.93 25.9 47.09l-23.01 79.28c-4.83 16.62-20.01 27.42-36.48 27.42zM312.54 908.59a37.9 37.9 0 0 1-10.61-1.52c-20.15-5.85-31.75-26.93-25.9-47.09l23.01-79.28c5.85-20.16 26.93-31.75 47.09-25.9 20.15 5.85 31.75 26.93 25.9 47.09l-23.01 79.28c-4.83 16.62-20.01 27.42-36.48 27.42zM157.44 753.52c-16.48 0-31.65-10.8-36.48-27.42-5.85-20.16 5.75-41.24 25.9-47.09L226.14 656c20.15-5.85 41.24 5.75 47.09 25.9 5.85 20.16-5.75 41.24-25.9 47.09L168.05 752a37.952 37.952 0 0 1-10.61 1.52z" fill="#2A2A2A" p-id="1517"></path></svg>