<?xml version="1.0" standalone="no"?><!DOCTYPE svg PUBLIC "-//W3C//DTD SVG 1.1//EN" "http://www.w3.org/Graphics/SVG/1.1/DTD/svg11.dtd"><svg t="1732247295037" class="icon" viewBox="0 0 1024 1024" version="1.1" xmlns="http://www.w3.org/2000/svg" p-id="6091" xmlns:xlink="http://www.w3.org/1999/xlink" width="200" height="200"><path d="M256 153.6h255.9488c32.0512 0 56.4736 0 86.8864 8.96 27.648 8.1408 48.128 17.92 73.1136 35.84 18.432 13.2096 33.8944 32.1024 45.6704 53.7088 12.544 23.04 18.3296 49.2544 18.3296 80.64 0 40.2944-13.7216 76.1856-36.5056 98.6624-22.8864 26.88-54.8352 44.7488-91.4944 58.2144 22.9376 0 41.1136 8.96 64 17.92 18.3296 9.0112 35.0208 19.9168 50.2784 36.4544 26.7776 29.184 27.2384 36.7616 35.9424 57.6 10.5984 25.3952 9.8304 44.7488 9.8304 67.1744 0 31.4368-4.608 62.72-18.3296 85.1456a238.592 238.592 0 0 1-54.784 62.72c-22.9376 17.92-50.2784 31.4368-82.3296 40.2944A421.888 421.888 0 0 1 507.4944 870.4H256V153.6z m100.5056 295.6288H493.568c18.3296 0 36.5056 0 54.8352-4.5056 18.3296-4.4544 31.1808-9.8304 41.1136-17.92 14.0288-11.5712 20.5824-18.944 27.4432-31.4368 10.24-18.688 9.1648-31.3856 9.1648-49.2544a105.984 105.984 0 0 0-27.4944-71.68c-26.4704-28.672-46.08-36.352-86.8352-35.7888H356.5056v210.5856z m0 336.128H502.784c13.7216 0 32.0512 0 50.2272-4.5056 18.3296-4.4544 31.0784-7.4752 50.2784-17.92 20.8384-11.3152 31.8464-20.4288 41.1136-35.84 8.3456-13.824 18.2784-35.7376 18.2784-62.6688 0-40.2944-7.936-71.936-39.3216-94.976-31.5392-23.0912-70.3488-34.9696-120.576-34.9696H356.5056v250.88z" fill="#5E6C84" p-id="6092"></path></svg>