<svg t="1767666893889" class="icon" viewBox="0 0 1024 1024" version="1.1" xmlns="http://www.w3.org/2000/svg" p-id="2809" width="200" height="200"><path d="M233.301333 363.264C257.365333 348.16 290.261333 341.333333 332.032 341.333333c48.085333 0 84.138667 11.904 106.922667 35.712 20.266667 20.650667 30.378667 50.730667 30.378666 90.197334v206.634666H402.261333v-42.581333a127.573333 127.573333 0 0 1-46.805333 36.949333c-20.906667 9.386667-45.568 14.421333-74.069333 14.421334-34.133333 0-60.714667-8.789333-80.341334-25.685334A83.797333 83.797333 0 0 1 170.666667 590.592c0-36.309333 13.909333-64.512 43.008-83.925333 26.581333-18.773333 63.914667-28.8 112-30.037334l71.509333-1.877333v-12.544c0-42.581333-23.381333-63.274667-70.229333-63.274667-20.224 0-36.053333 3.157333-48.085334 10.666667-13.909333 8.106667-23.424 20.650667-27.221333 37.546667l-71.509333-5.589334c6.997333-35.712 24.704-62.037333 53.162666-78.293333z m163.882667 179.114667v-16.298667l-66.432 1.877333c-57.6 1.28-86.058667 21.333333-86.058667 60.16a33.28 33.28 0 0 0 14.549334 28.16c10.154667 7.509333 22.784 11.904 38.613333 11.904 27.818667 0 51.242667-8.106667 70.229333-23.808 18.986667-16.256 29.098667-36.949333 29.098667-61.994666zM554.666667 673.024V170.666667h67.84v194.56c24.96-39.296 55.893333-58.624 91.605333-58.624 44.032 0 78.506667 18.645333 104.106667 55.893333 23.210667 34.517333 35.114667 77.952 35.114666 130.432 0 54.485333-11.904 99.328-35.712 133.845333-26.154667 37.248-61.866667 55.893333-107.093333 55.893334-40.448 0-71.381333-15.872-92.8-47.616v37.973333H554.666667z m210.602666-267.733333c-14.250667-23.466667-36.864-35.2-67.2-35.2-22.016 0-39.893333 10.325333-54.186666 31.061333-16.042667 22.058667-23.765333 52.437333-23.765334 90.368v5.546667c0 34.474667 5.973333 63.445333 19.029334 85.546666 14.293333 24.149333 34.517333 36.565333 61.269333 36.565334 29.738667 0 51.754667-12.416 66.048-37.248 11.306667-20.693333 17.28-50.346667 17.28-89.002667 0-38.656-6.570667-67.626667-18.474667-87.637333zM96 757.333333v-85.333333H32v149.333333h960v-149.333333h-64v85.333333H96z" p-id="2810"></path></svg>